{"title":"Immortals.CaM.XviD- THS","uid":6814632,"size":988291889,"categoryP":"video","categoryS":"movies","magnet":"?xt=urn:btih:afb8f41676cddf760d966c4266913467f6db9c8e&amp;dn=Immortals.CaM.XviD-+THS&amp;tr=udp%3A%2F%2Ftracker.openbittorrent.com%3A80&amp;tr=udp%3A%2F%2Fopen.demonii.com%3A1337&amp;tr=udp%3A%2F%2Ftracker.coppersurfer.tk%3A6969&amp;tr=udp%3A%2F%2Fexodus.desync.com%3A6969","seeders":1,"leechers":0,"uploader":"LegendET","files":2,"time":1321161975,"description":"[center]\n[img]http://www.filmofilia.com/wp-content/uploads/2011/04/immortals.jpg[/img]\n\nPRESENTS\n\nImmortals.CaM.XviD-THS\n\nrelease date: 11.12.11\n\n\n\nCODEC NFO\n\n\n\nComplete name: Immortals.CaM.XviD-THS.avi\n\nFormat: AVI\n\nFormat/Info: Audio Video Interleave\n\nFile size: 943 MiB\n\nDuration: 1h 41mn\n\nOverall bit rate: 1 293 Kbps\n\nWriting library: TMPGEnc 4.0 XPress Version. 4.7.6.304\n\n\n\nVideo\n\nID: 0\n\nFormat: MPEG-4 Visual\n\nFormat profile: Advanced Simple@L5\n\nFormat settings, BVOP: 1\n\nFormat settings, QPel: No\n\nFormat settings, GMC: No warppoints\n\nFormat settings, Matrix: Default (MPEG)\n\nMuxing mode: Packed bitstream\n\nCodec ID: XVID\n\nCodec ID/Hint: XviD\n\nDuration: 1h 41mn\n\nBit rate: 1 156 Kbps\n\nWidth: 720 pixels\n\nHeight: 372 pixels\n\nDisplay aspect ratio: 1.935\n\nFrame rate: 29.970 fps\n\nColor space: YUV\n\nChroma subsampling: 4:2:0\n\nBit depth: 8 bits\n\nScan type: Progressive\n\nCompression mode: Lossy\n\nBits/(Pixel*Frame): 0.144\n\nStream size: 843 MiB (89%)\n\nWriting library: XviD 64\n\n\n\nAudio\n\nID: 1\n\nFormat: MPEG Audio\n\nFormat version: Version 1\n\nFormat profile: Layer 3\n\nMode: Joint stereo\n\nCodec ID: 55\n\nCodec ID/Hint: MP3\n\nDuration: 1h 41mn\n\nBit rate mode: Constant\n\nBit rate: 128 Kbps\n\nChannel(s): 2 channels\n\nSampling rate: 48.0 KHz\n\nCompression mode: Lossy\n\nStream size: 93.3 MiB (10%)\n\nAlignment: Aligned on interleaves\n\nInterleave, duration: 250 ms (7.49 video frames)\n\nInterleave, preload duration: 432 ms\n\nRIPPER NOTE'S: Ok here our cam russian video and enlish cam audio\n\nnot bad for first release could be a lot better if it wasnt in 3D did best i could\n\nwith lil cleanup didnt take long to sync audio (thx Mate 4 audio)\n\n\n\n\n[img]http://i.imgur.com/LV6NG.jpg[/img]\n[/center]","torrent":{"xt":"urn:btih:afb8f41676cddf760d966c4266913467f6db9c8e","amp;dn":"Immortals.CaM.XviD-+THS","amp;tr":["udp%3A%2F%2Ftracker.openbittorrent.com%3A80","udp%3A%2F%2Fopen.demonii.com%3A1337","udp%3A%2F%2Ftracker.coppersurfer.tk%3A6969","udp%3A%2F%2Fexodus.desync.com%3A6969"],"infoHash":"afb8f41676cddf760d966c4266913467f6db9c8e","infoHashBuffer":{"type":"Buffer","data":[175,184,244,22,118,205,223,118,13,150,108,66,102,145,52,103,246,219,156,142]},"announce":[],"urlList":[]}}